<svg xmlns="http://www.w3.org/2000/svg" width="30" height="25.795" viewBox="0 0 30 25.795">
  <path id="shopping_basket_FILL0_wght400_GRAD0_opsz48"
        d="M7.222,29.645a1.55,1.55,0,0,1-.964-.321A1.5,1.5,0,0,1,5.7,28.5l-3.82-13.76a.987.987,0,0,1,.186-.913,1.043,1.043,0,0,1,.862-.406H9.69L15.945,4.29a1.412,1.412,0,0,1,.372-.321,1.006,1.006,0,0,1,.947,0,1.412,1.412,0,0,1,.372.321l6.221,9.128h6.931a1.009,1.009,0,0,1,.828.406.987.987,0,0,1,.186.913L27.947,28.5a1.5,1.5,0,0,1-.558.828,1.55,1.55,0,0,1-.964.321Zm.338-2.028H26.087L29.5,15.446H4.18Zm9.263-4.057a2.02,2.02,0,1,0-1.437-.592A1.956,1.956,0,0,0,16.824,23.56ZM12.158,13.418h9.23l-4.6-6.762Zm-4.6,14.2h0Z"
        transform="translate(-1.841 -3.85)"/>
</svg>
