<svg id="_1904675_configuration_edit_gear_options_preferences_icon"
     data-name="1904675_configuration_edit_gear_options_preferences_icon" xmlns="http://www.w3.org/2000/svg"
     width="30"
     height="30" viewBox="0 0 30 30">
  <path id="Path_1" data-name="Path 1"
        d="M44.044,39a5.044,5.044,0,1,0,5.044,5.044A5.044,5.044,0,0,0,44.044,39Zm0,8.877a3.833,3.833,0,1,1,3.833-3.833A3.833,3.833,0,0,1,44.044,47.877Z"
        transform="translate(-29.044 -29.044)"/>
  <path id="Path_2" data-name="Path 2"
        d="M28.359,11.25H26.266a.234.234,0,0,1-.22-.159,11.7,11.7,0,0,0-.469-1.137.234.234,0,0,1,.042-.27L27.1,8.2a1.641,1.641,0,0,0,0-2.32L24.115,2.9a1.641,1.641,0,0,0-2.32,0L20.316,4.38a.234.234,0,0,1-.27.042,11.662,11.662,0,0,0-1.137-.469.234.234,0,0,1-.159-.22V1.641A1.641,1.641,0,0,0,17.109,0H12.891A1.641,1.641,0,0,0,11.25,1.641V3.734a.234.234,0,0,1-.159.22,11.7,11.7,0,0,0-1.137.469.234.234,0,0,1-.27-.042L8.2,2.9a1.641,1.641,0,0,0-2.32,0L2.9,5.885a1.641,1.641,0,0,0,0,2.32L4.38,9.684a.234.234,0,0,1,.042.27,11.662,11.662,0,0,0-.469,1.137.234.234,0,0,1-.22.159H1.641A1.641,1.641,0,0,0,0,12.891v4.219A1.641,1.641,0,0,0,1.641,18.75H3.734a.234.234,0,0,1,.22.159,11.7,11.7,0,0,0,.469,1.137.234.234,0,0,1-.042.27L2.9,21.8a1.641,1.641,0,0,0,0,2.32L5.885,27.1a1.641,1.641,0,0,0,2.32,0l1.479-1.479a.234.234,0,0,1,.27-.042,11.662,11.662,0,0,0,1.137.469.234.234,0,0,1,.159.22v2.091A1.641,1.641,0,0,0,12.891,30h4.219a1.641,1.641,0,0,0,1.641-1.641V26.266a.234.234,0,0,1,.159-.22,11.7,11.7,0,0,0,1.137-.469.234.234,0,0,1,.27.042L21.8,27.1a1.641,1.641,0,0,0,2.32,0L27.1,24.115a1.641,1.641,0,0,0,0-2.32l-1.479-1.479a.234.234,0,0,1-.042-.27,11.662,11.662,0,0,0,.469-1.137.234.234,0,0,1,.22-.159h2.091A1.641,1.641,0,0,0,30,17.109V12.891a1.641,1.641,0,0,0-1.641-1.641Zm.234,5.859a.234.234,0,0,1-.234.234H26.266a1.641,1.641,0,0,0-1.547,1.1,10.289,10.289,0,0,1-.413,1,1.641,1.641,0,0,0,.316,1.875L26.1,22.8a.234.234,0,0,1,0,.33L23.121,26.1a.234.234,0,0,1-.33,0l-1.479-1.479a1.641,1.641,0,0,0-1.875-.316,10.282,10.282,0,0,1-1,.413,1.641,1.641,0,0,0-1.1,1.547v2.091a.234.234,0,0,1-.234.234H12.891a.234.234,0,0,1-.234-.234V26.266a1.641,1.641,0,0,0-1.1-1.547,10.289,10.289,0,0,1-1-.413,1.641,1.641,0,0,0-1.875.316L7.2,26.1a.234.234,0,0,1-.33,0L3.9,23.121a.234.234,0,0,1,0-.33l1.479-1.479a1.641,1.641,0,0,0,.316-1.875,10.284,10.284,0,0,1-.413-1,1.641,1.641,0,0,0-1.545-1.092H1.641a.234.234,0,0,1-.234-.234V12.891a.234.234,0,0,1,.234-.234H3.734a1.641,1.641,0,0,0,1.547-1.1,10.289,10.289,0,0,1,.413-1,1.641,1.641,0,0,0-.316-1.875L3.9,7.2a.234.234,0,0,1,0-.33L6.879,3.9a.234.234,0,0,1,.33,0L8.688,5.374a1.641,1.641,0,0,0,1.875.316,10.285,10.285,0,0,1,1-.413,1.641,1.641,0,0,0,1.092-1.545V1.641a.234.234,0,0,1,.234-.234h4.219a.234.234,0,0,1,.234.234V3.734a1.641,1.641,0,0,0,1.1,1.547,10.289,10.289,0,0,1,1,.412,1.641,1.641,0,0,0,1.875-.316L22.8,3.9a.234.234,0,0,1,.33,0l2.984,2.984a.234.234,0,0,1,0,.33L24.63,8.691a1.641,1.641,0,0,0-.316,1.875,10.284,10.284,0,0,1,.413,1,1.641,1.641,0,0,0,1.547,1.1h2.086a.234.234,0,0,1,.234.234Z"
        transform="translate(0)"/>
</svg>
