<svg xmlns="http://www.w3.org/2000/svg" width="35" height="29.277" viewBox="0 0 35 29.277">
  <path id="manage_accounts_FILL0_wght400_GRAD0_opsz48"
        d="M18.088,21.958a6.334,6.334,0,0,1-6.6-6.6,6.334,6.334,0,0,1,6.6-6.6,6.334,6.334,0,0,1,6.6,6.6,6.334,6.334,0,0,1-6.6,6.6ZM4,36.09V31.951a5.125,5.125,0,0,1,.77-2.774,4.962,4.962,0,0,1,2.223-1.893,32.252,32.252,0,0,1,5.877-2.025,23.491,23.491,0,0,1,5.217-.616H19.1a6.848,6.848,0,0,0-.4,1.211,12.97,12.97,0,0,0-.22,1.431h-.4a22.671,22.671,0,0,0-5,.55A22.849,22.849,0,0,0,8.05,29.662a2.388,2.388,0,0,0-1.057.991,2.661,2.661,0,0,0-.352,1.3v1.5H18.484a8.56,8.56,0,0,0,.528,1.431,6.906,6.906,0,0,0,.748,1.211Zm25.843,1.937-.44-2.906a7.811,7.811,0,0,1-1.519-.638,5.6,5.6,0,0,1-1.3-.947l-2.421.528-1.1-1.849,2.069-1.937a6.923,6.923,0,0,1,0-2.2L23.063,26.14l1.1-1.849,2.421.528a5.6,5.6,0,0,1,1.3-.947,7.811,7.811,0,0,1,1.519-.638l.44-2.906H32.22l.44,2.906a7.811,7.811,0,0,1,1.519.638,5.6,5.6,0,0,1,1.3.947l2.421-.528L39,26.14l-2.069,1.937a6.923,6.923,0,0,1,0,2.2L39,32.215l-1.1,1.849-2.421-.528a5.6,5.6,0,0,1-1.3.947,7.811,7.811,0,0,1-1.519.638l-.44,2.906ZM31.031,32.7a3.328,3.328,0,1,0-2.553-.969A3.452,3.452,0,0,0,31.031,32.7ZM18.088,19.316a3.84,3.84,0,0,0,3.962-3.962,3.84,3.84,0,0,0-3.962-3.962,3.84,3.84,0,0,0-3.962,3.962,3.84,3.84,0,0,0,3.962,3.962ZM18.088,15.354ZM18.484,33.448Z"
        transform="translate(-4 -8.75)"/>
</svg>
