<svg xmlns="http://www.w3.org/2000/svg" width="30" height="21.784" viewBox="0 0 30 21.784">
  <path id="local_shipping_FILL0_wght400_GRAD0_opsz48"
        d="M8.273,29.784A4.016,4.016,0,0,1,4.25,25.761H2V10.045a1.962,1.962,0,0,1,.614-1.432A1.962,1.962,0,0,1,4.045,8H23.784v5.693h3.58L32,19.864v5.9H29.58a4.026,4.026,0,0,1-6.869,2.847,3.877,3.877,0,0,1-1.176-2.847H12.3a4.016,4.016,0,0,1-4.023,4.023Zm0-2.045a1.977,1.977,0,1,0-1.4-3.375,1.977,1.977,0,0,0,1.4,3.375ZM4.045,23.716H4.8A4.517,4.517,0,0,1,6.261,22.25a3.836,3.836,0,0,1,3.972.017,4.75,4.75,0,0,1,1.483,1.449H21.739V10.045H4.045Zm21.511,4.023a1.979,1.979,0,1,0-1.4-.58A1.9,1.9,0,0,0,25.557,27.739Zm-1.773-6.955h6.341l-3.784-5.045H23.784ZM12.909,17.239Z"
        transform="translate(-2 -8)"/>
</svg>
