<svg xmlns="http://www.w3.org/2000/svg" width="25.241" height="28.992" viewBox="0 0 25.241 28.992">
  <g id="Group_11" data-name="Group 11" transform="translate(-27 -1029)">
    <g id="logout" transform="translate(21.07 1027)">
      <path id="Path_3" data-name="Path 3"
            d="M24.568,25.815v3.106H8V4.071H24.568V7.177h2.071V3.035A1.035,1.035,0,0,0,25.6,2H6.965A1.035,1.035,0,0,0,5.93,3.035V29.957a1.035,1.035,0,0,0,1.035,1.035H25.6a1.035,1.035,0,0,0,1.035-1.035V25.815Z"
            fill="#000"/>
      <g id="Group_10" data-name="Group 10">
        <line id="Line_2" data-name="Line 2" x2="13.502" transform="translate(16.255 16.296)" fill="none"
              stroke="#000"
              stroke-linecap="round" stroke-linejoin="round" stroke-width="2"/>
        <line id="Line_3" data-name="Line 3" x1="3.971" y2="3.971" transform="translate(25.786 16.296)"
              fill="none"
              stroke="#000" stroke-linecap="round" stroke-linejoin="round" stroke-width="2"/>
        <line id="Line_4" data-name="Line 4" x1="3.971" y1="3.971" transform="translate(25.786 12.325)"
              fill="none"
              stroke="#000" stroke-linecap="round" stroke-linejoin="round" stroke-width="2"/>
        <line id="Line_5" data-name="Line 5" y1="2.071" transform="translate(25.593 6.235)" fill="none"
              stroke="#000"
              stroke-linecap="round" stroke-linejoin="round" stroke-width="2"/>
        <line id="Line_6" data-name="Line 6" y1="1.588" transform="translate(25.786 25.033)" fill="none"
              stroke="#000"
              stroke-linecap="round" stroke-linejoin="round" stroke-width="2"/>
      </g>
    </g>
  </g>
</svg>
